<svg id="ervBI8DGRxP1" xmlns="http://www.w3.org/2000/svg" xmlns:xlink="http://www.w3.org/1999/xlink" viewBox="0 0 429.01 376.88" shape-rendering="geometricPrecision" text-rendering="geometricPrecision"><path d="M152.62,14.114066Q150.75,201,139.44,223.62L127.5,0L0,0v223.62L69.786459,364.850702L86.725438,376.85h100.454562L201,370.779345L214.18,354.52L228,371.202819L241.82,376.85l96.11.03l15.7-8.641502L364.93,354.52L402,281.267429l22.376383-48.540369l4.623616-25.063355-.000001-193.751582-6.818112-8.680267L412.177932,0h-94.977937L303.379994,8.762663L301.499993,30.14366v166.184466l-11.3,27.291874-11.95-30.236647v-177.667944L262.559993,0h-96.12L152.62,8.762663v4.648814" transform="translate(-5.167948 0)" fill="none" stroke="#3f5787" stroke-width="0.85802" stroke-dashoffset="2323.81687" stroke-dasharray="2323.81687"/><path d="M278.250006,30.14366v163.239693l11.31,30.236646l11.939987-27.291874-.000001-182.91665l1.880012-4.648814l13.82-8.762663l94.977926-.000001l10.003954,5.231856l6.828114,8.179621-.009994,194.252228-4.623623,25.063355-33.676376,71.706965-25.770007,50.055975-10.848555,13.748498-16.151438,8.611502h-96.110001l-13.820006-5.647181-13.179993-16.682819-11.950002,13.718498-15.69,8.611502h-100.454569L69.786455,364.850699L0.000003,223.619997v-207.904591L5.795314,5.231853L16.79203,-0.000003h90.603375L121.02177,5.231853l6.478226,10.483553.000006,39.322938v111.808659l-.000006,9.032994" transform="translate(.000002 0.000003)" fill="none" stroke="#3f5787" stroke-width="0.85802" stroke-dashoffset="1894.491201" stroke-dasharray="1894.49"/></svg>
